<svg xmlns="http://www.w3.org/2000/svg" xmlns:xlink="http://www.w3.org/1999/xlink" version="1.1" width="256" height="256" viewBox="0 0 256 256" xml:space="preserve">

<defs>
</defs>
<g style="stroke: none; stroke-width: 0; stroke-dasharray: none; stroke-linecap: butt; stroke-linejoin: miter; stroke-miterlimit: 10; fill: none; fill-rule: nonzero; opacity: 1;" transform="translate(1.4065934065934016 1.4065934065934016) scale(2.81 2.81)" >
	<path d="M 70.968 88.365 V 87.01 c 0 -3.613 1.19 -7.125 3.385 -9.994 l 0 0 c 2.195 -2.869 3.385 -6.381 3.385 -9.994 V 39.716 V 22.978 c 0 -3.613 -1.19 -7.125 -3.385 -9.994 l 0 0 c -2.195 -2.869 -3.385 -6.381 -3.385 -9.994 V 1.633 C 70.968 0.731 70.237 0 69.335 0 H 20.664 c -0.902 0 -1.633 0.731 -1.633 1.633 V 2.99 c 0 3.613 -1.19 7.125 -3.385 9.994 l 0 0 c -2.195 2.869 -3.385 6.381 -3.385 9.994 v 16.738 v 27.306 c 0 3.613 1.19 7.125 3.385 9.994 l 0 0 c 2.195 2.869 3.385 6.381 3.385 9.994 v 1.355 c 0 0.903 0.732 1.635 1.635 1.635 h 48.667 C 70.236 90 70.968 89.268 70.968 88.365 z" style="stroke: none; stroke-width: 1; stroke-dasharray: none; stroke-linecap: butt; stroke-linejoin: miter; stroke-miterlimit: 10; fill: rgb(85,93,103); fill-rule: nonzero; opacity: 1;" transform=" matrix(1 0 0 1 0 0) " stroke-linecap="round" />
	<path d="M 62.753 81.212 H 27.247 c -8.276 0 -14.985 -6.709 -14.985 -14.985 V 23.774 c 0 -8.276 6.709 -14.985 14.985 -14.985 h 35.506 c 8.276 0 14.985 6.709 14.985 14.985 v 42.453 C 77.738 74.503 71.029 81.212 62.753 81.212 z" style="stroke: none; stroke-width: 1; stroke-dasharray: none; stroke-linecap: butt; stroke-linejoin: miter; stroke-miterlimit: 10; fill: rgb(56,66,80); fill-rule: nonzero; opacity: 1;" transform=" matrix(1 0 0 1 0 0) " stroke-linecap="round" />
	<path d="M 52.67 73.659 H 37.33 c -0.847 0 -1.534 -0.687 -1.534 -1.534 s 0.687 -1.534 1.534 -1.534 H 52.67 c 0.847 0 1.534 0.687 1.534 1.534 S 53.517 73.659 52.67 73.659 z" style="stroke: none; stroke-width: 1; stroke-dasharray: none; stroke-linecap: butt; stroke-linejoin: miter; stroke-miterlimit: 10; fill: rgb(85,93,103); fill-rule: nonzero; opacity: 1;" transform=" matrix(1 0 0 1 0 0) " stroke-linecap="round" />
	<path d="M 62.412 82.746 H 27.588 c -9.296 0 -16.86 -7.564 -16.86 -16.861 V 24.114 c 0 -9.296 7.564 -16.86 16.86 -16.86 h 34.825 c 9.296 0 16.86 7.564 16.86 16.86 v 41.772 C 79.272 75.183 71.709 82.746 62.412 82.746 z M 27.588 10.322 c -7.605 0 -13.792 6.187 -13.792 13.792 v 41.772 c 0 7.606 6.187 13.793 13.792 13.793 h 34.825 c 7.605 0 13.792 -6.187 13.792 -13.793 V 24.114 c 0 -7.605 -6.187 -13.792 -13.792 -13.792 H 27.588 z" style="stroke: none; stroke-width: 1; stroke-dasharray: none; stroke-linecap: butt; stroke-linejoin: miter; stroke-miterlimit: 10; fill: rgb(85,93,103); fill-rule: nonzero; opacity: 1;" transform=" matrix(1 0 0 1 0 0) " stroke-linecap="round" />
	<path d="M 45 45.599 c -4.171 0 -7.564 -3.393 -7.564 -7.564 v -9.122 c 0 -4.171 3.393 -7.564 7.564 -7.564 c 4.171 0 7.564 3.393 7.564 7.564 v 9.122 C 52.564 42.206 49.171 45.599 45 45.599 z" style="stroke: none; stroke-width: 1; stroke-dasharray: none; stroke-linecap: butt; stroke-linejoin: miter; stroke-miterlimit: 10; fill: rgb(166,198,228); fill-rule: nonzero; opacity: 1;" transform=" matrix(1 0 0 1 0 0) " stroke-linecap="round" />
	<path d="M 56.988 32.424 c -0.819 0 -1.484 0.664 -1.484 1.484 v 5.174 c 0 5.792 -4.712 10.503 -10.504 10.503 s -10.504 -4.712 -10.504 -10.503 v -6.041 c 0 -0.82 -0.664 -1.484 -1.484 -1.484 s -1.484 0.664 -1.484 1.484 v 6.041 c 0 6.925 5.256 12.643 11.987 13.384 v 6.896 h -2.84 c -0.82 0 -1.484 0.664 -1.484 1.484 c 0 0.819 0.664 1.484 1.484 1.484 h 8.647 c 0.819 0 1.484 -0.664 1.484 -1.484 c 0 -0.819 -0.664 -1.484 -1.484 -1.484 h -2.84 v -6.896 c 6.732 -0.742 11.988 -6.459 11.988 -13.384 v -5.174 C 58.471 33.088 57.807 32.424 56.988 32.424 z" style="stroke: none; stroke-width: 1; stroke-dasharray: none; stroke-linecap: butt; stroke-linejoin: miter; stroke-miterlimit: 10; fill: rgb(166,198,228); fill-rule: nonzero; opacity: 1;" transform=" matrix(1 0 0 1 0 0) " stroke-linecap="round" />
</g>
</svg>