<svg xmlns="http://www.w3.org/2000/svg" xmlns:xlink="http://www.w3.org/1999/xlink" version="1.1" width="256" height="256" viewBox="0 0 256 256" xml:space="preserve">

<defs>
</defs>
<g style="stroke: none; stroke-width: 0; stroke-dasharray: none; stroke-linecap: butt; stroke-linejoin: miter; stroke-miterlimit: 10; fill: none; fill-rule: nonzero; opacity: 1;" transform="translate(1.4065934065934016 1.4065934065934016) scale(2.81 2.81)" >
	<path d="M 45.001 0 L 45.001 0 C 20.147 0 0 20.147 0 45 v 0 c 0 24.853 20.147 45 45 45 h 0.001 C 69.853 90 90 69.853 90 45.001 v -0.001 C 90 20.147 69.853 0 45.001 0 z" style="stroke: none; stroke-width: 1; stroke-dasharray: none; stroke-linecap: butt; stroke-linejoin: miter; stroke-miterlimit: 10; fill: rgb(204,106,29); fill-rule: nonzero; opacity: 1;" transform=" matrix(1 0 0 1 0 0) " stroke-linecap="round" />
	<path d="M 45 56.422 L 45 56.422 c -3.83 0 -6.935 -3.105 -6.935 -6.935 v -4.515 c 0 -3.83 3.105 -6.935 6.935 -6.935 h 0 c 3.83 0 6.935 3.105 6.935 6.935 v 4.515 C 51.935 53.317 48.83 56.422 45 56.422 z" style="stroke: none; stroke-width: 1; stroke-dasharray: none; stroke-linecap: butt; stroke-linejoin: miter; stroke-miterlimit: 10; fill: rgb(255,255,255); fill-rule: nonzero; opacity: 1;" transform=" matrix(1 0 0 1 0 0) " stroke-linecap="round" />
	<path d="M 53.743 77.105 c 1.392 0 2.52 -1.128 2.52 -2.52 v -6.397 c 0 -7.05 -5.043 -12.766 -11.263 -12.766 h 0 c -6.22 0 -11.263 5.715 -11.263 12.766 v 6.397 c 0 1.392 1.128 2.52 2.52 2.52 H 53.743 z" style="stroke: none; stroke-width: 1; stroke-dasharray: none; stroke-linecap: butt; stroke-linejoin: miter; stroke-miterlimit: 10; fill: rgb(255,255,255); fill-rule: nonzero; opacity: 1;" transform=" matrix(1 0 0 1 0 0) " stroke-linecap="round" />
	<path d="M 63.879 73.471 c -0.75 0 -1.491 -0.336 -1.983 -0.976 c -0.842 -1.095 -0.637 -2.664 0.457 -3.506 C 69.438 63.54 73.5 55.306 73.5 46.395 c 0 -15.715 -12.785 -28.5 -28.5 -28.5 s -28.5 12.785 -28.5 28.5 c 0 8.909 4.063 17.145 11.147 22.594 c 1.094 0.842 1.299 2.411 0.457 3.506 c -0.841 1.094 -2.409 1.3 -3.506 0.457 C 16.274 66.55 11.5 56.87 11.5 46.395 c 0 -18.472 15.028 -33.5 33.5 -33.5 c 18.472 0 33.5 15.028 33.5 33.5 c 0 10.475 -4.774 20.154 -13.099 26.557 C 64.947 73.302 64.411 73.471 63.879 73.471 z" style="stroke: none; stroke-width: 1; stroke-dasharray: none; stroke-linecap: butt; stroke-linejoin: miter; stroke-miterlimit: 10; fill: rgb(255,255,255); fill-rule: nonzero; opacity: 1;" transform=" matrix(1 0 0 1 0 0) " stroke-linecap="round" />
	<path d="M 29.331 58.452 c -0.82 0 -1.624 -0.402 -2.102 -1.143 c -2.221 -3.436 -3.395 -7.397 -3.395 -11.456 c 0 -11.671 9.495 -21.167 21.167 -21.167 c 11.672 0 21.167 9.495 21.167 21.167 c 0 4.06 -1.174 8.021 -3.396 11.456 c -0.751 1.161 -2.297 1.491 -3.457 0.742 c -1.159 -0.75 -1.491 -2.298 -0.742 -3.457 c 1.697 -2.625 2.595 -5.647 2.595 -8.741 c 0 -8.914 -7.253 -16.167 -16.167 -16.167 s -16.167 7.252 -16.167 16.167 c 0 3.094 0.897 6.116 2.594 8.741 c 0.75 1.159 0.417 2.707 -0.742 3.457 C 30.266 58.323 29.795 58.452 29.331 58.452 z" style="stroke: none; stroke-width: 1; stroke-dasharray: none; stroke-linecap: butt; stroke-linejoin: miter; stroke-miterlimit: 10; fill: rgb(255,255,255); fill-rule: nonzero; opacity: 1;" transform=" matrix(1 0 0 1 0 0) " stroke-linecap="round" />
</g>
</svg>